<?xml version="1.0" standalone="no"?>
<!DOCTYPE svg PUBLIC "-//W3C//DTD SVG 20010904//EN"
 "http://www.w3.org/TR/2001/REC-SVG-20010904/DTD/svg10.dtd">
<svg version="1.0" xmlns="http://www.w3.org/2000/svg"
 width="430.000000pt" height="402.000000pt" viewBox="0 0 430.000000 402.000000"
 preserveAspectRatio="xMidYMid meet">

<g transform="translate(0.000000,402.000000) scale(0.100000,-0.100000)"
fill="#000000" stroke="none">
<path d="M925 4010 c9 -15 -14 -42 -29 -33 -6 4 -3 -5 7 -21 13 -19 16 -36 12
-57 -4 -18 -3 -29 4 -29 6 0 11 6 11 13 0 8 4 7 10 -3 5 -8 10 -10 11 -5 7 48
6 63 -3 83 -9 17 -9 25 1 35 10 9 11 9 6 -4 -7 -20 20 -75 30 -59 4 6 -1 20
-11 31 -16 18 -16 19 -1 13 14 -5 16 -2 9 17 -6 16 -19 25 -37 27 -18 2 -25 0
-20 -8z m16 -97 c-12 -20 -14 -14 -5 12 4 9 9 14 11 11 3 -2 0 -13 -6 -23z"/>
<path d="M1086 4003 c4 -11 3 -14 -3 -7 -11 15 -73 16 -73 1 0 -7 9 -19 19
-27 11 -7 17 -18 14 -24 -4 -5 0 -7 9 -3 11 4 20 -3 28 -24 8 -18 18 -28 26
-25 8 3 13 2 12 -2 -1 -4 4 -19 10 -34 9 -22 18 -28 42 -28 26 0 30 4 30 26 0
26 20 54 39 54 7 0 7 8 1 26 -13 33 -13 37 2 28 7 -5 8 -3 2 7 -5 8 -7 22 -6
32 3 13 -4 17 -32 17 -29 0 -36 -4 -36 -20 0 -11 -4 -20 -10 -20 -5 0 -14 9
-20 20 -14 26 -62 28 -54 3z"/>
<path d="M1566 3987 c-22 -38 -46 -113 -46 -144 0 -18 -14 -26 -97 -53 -92
-29 -98 -30 -110 -14 -7 10 -13 25 -13 33 0 26 -37 74 -59 78 -15 2 -19 -2
-17 -22 1 -13 8 -31 15 -39 9 -11 10 -20 1 -35 -11 -22 -30 -28 -30 -10 0 5
-5 7 -12 3 -6 -4 -25 -10 -42 -14 -27 -6 -28 -8 -11 -14 73 -27 85 -40 38 -44
-81 -6 -253 -57 -298 -88 -24 -17 -20 -17 41 0 90 26 166 38 176 28 6 -6 -11
-23 -47 -47 -55 -36 -133 -109 -225 -209 -43 -47 -43 -48 -9 -23 39 29 108 61
154 71 l30 7 -30 -27 -30 -27 30 7 c27 7 28 6 12 -6 -17 -13 -22 -44 -19 -110
2 -23 7 -28 27 -28 22 0 23 -3 15 -24 -7 -19 -5 -26 6 -30 10 -4 13 -13 9 -25
-5 -16 -2 -18 15 -14 11 3 20 0 20 -5 0 -6 10 -20 22 -32 12 -11 16 -20 10
-20 -14 0 -16 -36 -2 -45 5 -3 7 0 4 8 -3 8 -1 18 5 22 6 3 11 1 11 -6 0 -8 5
-7 17 2 15 13 15 12 5 -7 -9 -18 -8 -20 11 -20 12 1 27 10 34 21 12 19 12 18
13 -7 0 -16 5 -28 10 -28 6 0 10 -13 10 -30 0 -20 7 -33 21 -41 12 -6 19 -7
15 -1 -3 5 1 15 9 22 21 17 20 -12 -2 -75 l-16 -48 -16 40 c-20 53 -29 61 -23
23 2 -17 9 -30 14 -30 5 0 6 -5 3 -10 -4 -6 -10 -8 -15 -5 -4 3 -11 -1 -13 -7
-4 -10 -6 -10 -6 -1 -1 7 -8 10 -16 7 -11 -4 -16 5 -21 35 -5 34 -9 39 -20 30
-8 -6 -14 -19 -14 -28 0 -14 -2 -14 -10 -1 -7 12 -10 11 -16 -5 -6 -15 -11 -9
-25 31 -15 43 -19 46 -25 26 -6 -21 -7 -21 -20 -5 -7 10 -14 13 -14 6 0 -6 -7
-10 -15 -9 -18 3 -32 16 -17 16 7 0 12 5 12 11 0 5 -4 7 -10 4 -12 -8 -13 7
-1 20 13 15 44 115 37 122 -3 4 -6 0 -6 -8 0 -8 -11 -27 -25 -44 -13 -16 -28
-34 -33 -40 -4 -5 -12 -19 -17 -30 -8 -19 -9 -19 -13 3 -3 19 -6 21 -18 11
-11 -9 -14 -6 -15 17 -1 17 -3 22 -6 12 -3 -14 -7 -15 -18 -5 -7 6 -10 17 -5
22 8 11 20 55 14 55 -2 0 -12 -9 -22 -20 -16 -17 -24 -19 -46 -11 -14 6 -26
13 -26 16 0 4 4 3 10 0 6 -3 10 4 10 16 0 21 -1 22 -20 4 -22 -19 -28 -7 -7
14 10 10 9 11 -5 6 -37 -14 -107 -151 -152 -297 -38 -125 -56 -256 -56 -418 0
-159 15 -272 53 -425 42 -164 43 -161 39 87 -2 128 1 253 6 278 l10 45 1 -56
c2 -107 22 -257 46 -349 22 -87 23 -96 10 -154 -30 -132 -63 -292 -63 -306 0
-8 -5 -48 -11 -87 -12 -80 -34 -443 -27 -450 2 -3 7 31 10 74 23 279 46 450
81 598 36 151 46 168 38 60 -9 -108 -9 -86 0 -370 7 -235 25 -351 82 -548 20
-68 29 -72 14 -7 -20 87 -48 297 -60 440 -12 148 -6 438 9 466 16 28 80 -131
92 -229 12 -100 18 -119 32 -111 6 4 8 1 6 -7 -3 -8 -1 -27 4 -44 10 -37 38
-348 38 -430 0 -45 3 -56 11 -45 8 12 9 9 5 -12 -7 -31 21 -148 60 -253 14
-39 29 -81 33 -95 13 -41 121 -254 138 -270 11 -11 9 -3 -5 25 -67 135 -178
611 -156 668 3 8 1 39 -4 70 -5 31 -5 57 -1 57 5 0 6 7 3 15 -4 8 -3 27 1 43
6 20 17 -20 45 -168 21 -107 55 -244 75 -305 20 -60 38 -117 41 -125 3 -8 -4
2 -16 23 -23 42 -34 49 -20 13 23 -61 72 -146 80 -141 5 3 7 -1 4 -9 -7 -18 3
-37 89 -166 76 -114 182 -243 204 -248 7 -2 -14 51 -51 125 -60 120 -88 191
-148 373 -51 151 -95 359 -128 594 -20 143 -25 214 -14 203 4 -4 21 -37 38
-74 61 -133 164 -302 269 -445 26 -34 46 -37 23 -3 -20 30 -20 39 -1 31 8 -3
15 -1 15 3 0 5 -7 11 -15 15 -8 3 -15 1 -15 -5 0 -51 -161 219 -251 422 -63
143 -89 226 -94 304 -2 38 -7 116 -11 173 -7 111 -2 121 38 74 12 -15 43 -45
67 -67 l44 -40 -32 55 c-64 109 -151 306 -151 343 0 6 13 -2 30 -18 33 -31 36
-26 19 40 -8 32 -8 48 1 65 18 34 33 11 65 -95 25 -85 45 -121 45 -80 0 10 10
15 30 15 22 0 30 -5 30 -17 0 -22 -10 -37 -32 -49 -16 -9 -16 -12 6 -45 33
-48 88 -74 130 -62 46 13 68 61 64 144 -3 60 -1 65 14 55 9 -5 34 -59 55 -118
20 -59 39 -106 40 -104 2 2 -3 48 -12 102 -18 113 -33 294 -25 294 3 0 20 -46
37 -101 31 -95 112 -283 119 -276 2 2 -5 46 -17 98 -28 129 -59 353 -58 419 1
30 3 46 6 35 23 -107 96 -310 150 -419 37 -74 124 -209 130 -202 2 2 -10 46
-27 97 -17 52 -38 120 -46 153 -19 75 -65 308 -61 312 1 2 15 -34 31 -80 32
-93 119 -277 110 -231 -41 206 -71 425 -58 425 5 0 35 -55 67 -123 l57 -122
-26 -63 c-14 -35 -24 -75 -22 -90 3 -24 6 -21 37 35 18 35 37 61 41 58 4 -2
10 -32 14 -66 7 -67 12 -81 25 -60 9 13 56 19 67 8 13 -12 -13 -62 -35 -67
l-23 -5 22 -28 c33 -42 76 -60 129 -54 79 9 129 89 147 232 6 52 8 56 15 32
12 -45 2 -164 -25 -297 -38 -182 -52 -230 -78 -257 -39 -42 -208 -150 -313
-199 -136 -65 -177 -67 -276 -17 -4 1 -12 -3 -18 -11 -9 -11 -6 -12 15 -8 19
3 25 1 20 -7 -4 -6 -4 -11 1 -10 18 4 41 -13 36 -27 -4 -11 4 -13 35 -10 21 2
49 9 60 15 54 29 50 -2 -5 -39 -41 -28 -90 -76 -104 -103 -14 -26 12 -32 51
-12 46 24 36 8 -54 -86 l-79 -82 -26 17 c-36 24 -107 56 -134 62 -12 2 -38 7
-57 10 l-35 7 20 -24 c10 -13 40 -45 64 -72 37 -39 44 -51 35 -64 -13 -21 11
-70 39 -79 24 -8 21 -24 -5 -24 -19 0 -17 -4 15 -22 20 -12 37 -27 37 -33 0
-14 -61 -106 -90 -135 -34 -34 -11 -35 56 -3 33 16 67 27 77 25 27 -5 21 -41
-8 -48 -31 -8 -33 -21 -2 -20 16 1 23 -5 25 -23 3 -16 6 -20 11 -12 6 8 12 3
20 -17 15 -35 39 -44 83 -31 41 11 45 6 19 -22 -12 -13 -21 -26 -21 -31 0 -4
-7 -8 -15 -8 -8 0 -15 7 -15 15 0 20 -5 19 -33 -9 -17 -17 -31 -22 -50 -19
-16 3 -27 1 -27 -6 0 -6 20 -11 48 -12 36 -1 41 -3 22 -8 l-25 -7 28 -7 c26
-7 38 -27 16 -27 -8 0 -8 -4 1 -14 6 -8 18 -12 26 -9 8 3 24 -4 35 -15 20 -22
26 -48 9 -37 -5 3 -10 -1 -10 -9 0 -26 17 -18 29 12 10 26 10 26 6 -8 -2 -19
-7 -88 -11 -152 l-7 -118 49 0 49 0 34 72 c75 161 409 683 427 666 10 -11
-113 -383 -153 -461 -8 -16 -12 -31 -10 -34 15 -15 146 270 210 457 50 146
138 478 151 570 2 14 14 108 27 210 20 157 25 178 31 145 5 -22 13 -54 18 -71
6 -17 10 -42 10 -57 0 -23 19 -50 21 -30 0 4 2 15 3 23 34 172 26 558 -15 746
-7 28 -10 57 -7 64 3 11 53 -101 88 -200 7 -19 19 -50 27 -69 9 -19 16 -45 16
-57 -1 -13 3 -22 7 -19 4 3 7 -1 7 -8 -1 -6 4 -37 10 -67 62 -292 55 -632 -16
-801 -16 -38 -26 -69 -22 -69 14 0 80 137 106 220 14 47 30 93 35 102 5 9 6
18 1 20 -10 4 9 168 20 168 11 0 32 -108 26 -131 -4 -16 -1 -19 16 -17 17 3
23 -5 34 -47 25 -97 18 -138 -61 -366 -41 -118 -98 -281 -126 -363 -52 -152
-98 -246 -177 -369 -24 -38 -40 -74 -37 -80 4 -7 4 -9 0 -5 -4 3 -28 -19 -53
-50 -25 -31 -52 -64 -60 -73 -12 -15 -8 -17 52 -18 51 -1 65 2 65 13 0 8 9 18
20 21 23 7 26 21 8 28 -7 2 0 8 15 12 21 6 27 12 24 25 -3 12 2 20 15 23 11 3
22 14 25 25 3 11 13 22 24 25 11 3 19 14 19 26 0 25 20 28 21 4 0 -10 5 -3 10
14 5 18 14 33 20 33 6 0 7 5 4 10 -3 6 -1 10 5 10 6 0 15 12 20 26 6 14 14 22
20 19 5 -3 12 6 16 20 3 14 8 24 11 22 6 -7 -21 -87 -30 -87 -5 0 -5 -5 -2
-10 7 -11 -45 -146 -72 -188 -24 -38 -7 -37 22 2 33 43 130 240 139 283 4 18
11 35 16 38 5 3 5 -8 0 -25 -5 -18 -5 -28 0 -25 5 3 12 21 16 40 3 19 11 36
18 37 6 0 16 2 21 3 6 2 15 3 21 4 7 0 24 20 39 44 16 26 25 34 22 19 -9 -42
12 -22 27 26 l15 47 0 -40 c1 -38 -13 -145 -25 -190 -5 -19 -5 -20 10 -1 8 10
32 68 51 127 23 69 41 107 48 102 6 -4 8 0 4 10 -3 10 -2 17 3 17 6 0 10 -4
10 -8 0 -4 9 -8 20 -9 11 -1 20 3 20 8 0 6 4 8 9 4 5 -3 12 3 16 14 4 13 19
20 55 25 28 4 50 12 50 18 0 6 10 3 21 -8 22 -19 22 -19 17 9 -3 15 -1 30 3
33 5 3 9 1 9 -5 0 -10 129 -221 135 -221 2 0 -16 42 -41 94 -24 51 -44 100
-44 109 0 18 16 30 44 32 10 1 24 9 31 18 7 10 20 17 29 17 9 0 16 4 16 8 0 5
13 9 29 10 45 1 123 26 474 148 l137 48 0 505 0 505 -47 -45 c-126 -120 -265
-189 -383 -189 -23 0 -27 4 -23 19 4 17 49 53 177 141 91 63 212 212 251 308
24 61 25 68 25 325 l0 263 -30 88 c-62 185 -224 416 -385 550 l-49 41 55 -70
c86 -108 117 -157 176 -281 83 -176 97 -236 97 -439 1 -126 -4 -191 -16 -251
-48 -222 -128 -361 -257 -448 -50 -34 -97 -51 -58 -22 12 9 14 16 7 21 -5 3
-8 10 -5 15 3 5 -1 20 -9 32 -8 13 -18 40 -21 61 -4 20 -11 37 -16 37 -5 0 -9
5 -9 11 0 6 -13 22 -30 36 -35 29 -38 43 -10 43 25 0 26 16 1 23 -23 6 -35 56
-15 64 18 7 18 23 0 23 -15 0 -24 17 -37 70 -4 19 -11 47 -15 63 -5 23 -3 27
15 27 25 0 27 12 5 31 -13 11 -17 10 -25 -3 -6 -10 -17 -14 -29 -11 -26 7 -20
29 8 26 25 -3 46 21 38 42 -4 10 -16 15 -33 13 -26 -3 -27 -1 -25 37 3 55 -13
78 -22 31 -9 -45 -22 -47 -25 -3 -1 17 -3 37 -3 44 -2 18 -37 23 -53 6 -12
-11 -15 -12 -16 -1 -1 7 -5 2 -9 -12 -8 -24 -8 -23 -9 8 -1 20 3 31 9 27 6 -3
10 -1 10 4 0 6 -4 11 -10 11 -5 0 -10 7 -10 15 0 8 6 15 13 15 8 0 9 3 1 8
-10 6 -16 61 -18 149 -1 17 -3 29 -6 27 -7 -8 -30 139 -23 150 3 5 1 6 -5 2
-8 -5 -12 1 -12 16 0 13 -4 28 -9 33 -5 6 -18 48 -30 95 -12 47 -30 116 -41
153 l-19 68 22 8 c12 5 42 28 65 51 23 24 44 41 46 39 2 -2 21 -31 43 -64 58
-85 115 -201 187 -375 19 -47 35 -78 36 -69 0 37 -70 243 -130 379 -22 52 -44
102 -47 110 -4 8 6 4 21 -9 29 -27 40 -22 50 20 5 23 2 28 -19 33 -14 4 -23
11 -20 16 4 7 13 6 26 -1 19 -10 20 -8 15 23 -11 65 -26 185 -37 301 l-12 117
-53 0 c-47 0 -53 -3 -57 -22 l-4 -23 -2 23 c-1 29 -41 30 -59 2 -7 -11 -18
-20 -24 -20 -9 0 -9 3 0 12 16 16 15 28 -2 28 -11 0 -16 -21 -21 -77 -10 -107
-14 -112 -56 -66 -19 21 -61 62 -93 91 l-60 52 -85 0 -86 0 68 -45 c37 -25 67
-50 67 -55 0 -6 7 -10 15 -10 8 0 55 -40 105 -89 l91 -89 -33 -53 c-40 -67
-40 -67 -45 -51 -3 7 -33 54 -66 104 -34 50 -67 99 -72 107 -14 21 -76 81
-140 137 l-52 44 -117 0 c-99 0 -116 -2 -116 -16 0 -10 -6 -13 -19 -9 -10 3
-26 2 -36 -1 -15 -6 -15 -8 6 -20 13 -7 28 -10 33 -7 5 4 6 1 2 -5 -3 -6 2
-16 12 -21 11 -6 25 -24 32 -41 7 -17 22 -33 36 -36 14 -4 21 -11 17 -20 -4
-11 -25 -4 -92 33 -47 26 -129 69 -182 95 l-97 48 -386 0 -386 0 0 -37 c-1
-31 -3 -35 -11 -20 -6 9 -7 26 -4 37 11 34 -28 24 -49 -13z m1101 -3 c-3 -3
-12 -4 -19 -1 -8 3 -5 6 6 6 11 1 17 -2 13 -5z m-1092 -58 c-4 -20 -12 -36
-17 -36 -9 0 -2 54 9 73 10 17 14 -2 8 -37z m411 -52 c17 -7 37 -20 44 -29 12
-15 10 -15 -16 -9 -16 5 -84 8 -151 9 -66 0 -119 3 -117 7 8 13 68 37 99 40
42 5 105 -3 141 -18z m1444 -4 c0 -4 -9 -10 -20 -13 -21 -5 -24 1 -14 27 5 13
9 14 20 5 8 -6 14 -15 14 -19z m37 -82 c-3 -8 -6 -5 -6 6 -1 11 2 17 5 13 3
-3 4 -12 1 -19z m-2220 -43 c3 -9 3 -19 -1 -22 -8 -9 -37 18 -30 28 8 14 24
11 31 -6z m2283 -60 c-1 -5 -6 -20 -14 -33 l-12 -23 -27 38 c-15 22 -27 42
-27 45 0 3 18 0 40 -5 22 -6 40 -16 40 -22z m-156 -14 c16 -18 16 -19 -1 -17
-20 1 -34 16 -27 28 7 11 9 10 28 -11z m-1051 -375 c20 7 138 -107 175 -169
l22 -38 -22 6 c-18 5 -19 4 -8 -4 25 -17 2 -25 -24 -7 -17 10 -27 12 -31 5 -4
-6 -5 -13 -1 -16 3 -3 -2 -12 -10 -20 -13 -13 -21 -9 -73 36 -32 28 -63 51
-67 51 -16 1 -42 68 -31 79 6 6 11 21 13 35 3 29 26 58 35 45 3 -6 13 -7 22
-3z m-78 -146 c-3 -5 -2 -10 4 -10 5 0 25 -32 45 -71 29 -61 33 -74 21 -85
-18 -19 -25 -17 -19 4 5 16 5 16 -6 0 -15 -24 -19 -23 -65 20 -71 65 -79 78
-63 99 7 10 20 18 28 18 8 0 16 6 16 13 2 21 3 22 25 22 11 0 17 -4 14 -10z
m734 -85 c37 -25 106 -80 152 -124 l84 -78 -50 -24 c-38 -17 -68 -23 -124 -23
l-75 -1 -13 79 c-12 68 -35 162 -50 204 -8 20 4 15 76 -33z m-808 -27 c44 -77
60 -129 32 -107 -15 12 -16 12 -10 -3 8 -22 -1 -22 -27 -3 -27 21 -39 19 -33
-5 7 -28 -8 -34 -38 -14 -14 9 -25 13 -24 8 6 -36 -29 -8 -55 43 -20 40 -21
63 -1 63 8 0 15 5 15 11 0 5 5 7 10 4 6 -3 13 0 16 9 3 8 12 12 20 9 7 -3 17
2 20 11 12 31 49 18 75 -26z m-940 -35 c-12 -20 -14 -14 -5 12 4 9 9 14 11 11
3 -2 0 -13 -6 -23z m99 -20 c0 -7 4 -13 10 -13 5 0 6 -7 3 -17 -4 -11 -3 -14
5 -9 7 4 12 14 12 22 0 8 5 14 11 14 6 0 8 -7 5 -16 -3 -8 -2 -12 4 -9 6 3 10
14 10 23 0 15 2 15 11 2 8 -11 12 -12 16 -2 7 18 23 15 24 -5 0 -15 2 -15 9 2
l9 20 0 -20 c1 -11 -6 -57 -15 -102 -17 -84 -34 -110 -34 -52 0 27 -2 30 -15
19 -13 -11 -15 -8 -15 14 0 26 -1 27 -17 10 -17 -16 -18 -16 -24 7 -7 24 -7
24 -8 2 -1 -27 -31 -32 -31 -5 -1 11 -6 6 -15 -13 l-13 -30 -1 30 c-1 36 17
154 26 168 7 12 33 -20 33 -40z m190 -10 c0 -28 3 -34 10 -23 16 26 19 5 9
-65 -11 -68 -28 -110 -30 -69 0 18 -1 18 -9 -1 -10 -24 -13 115 -4 164 9 43
24 39 24 -6z m470 -25 c26 -57 26 -88 1 -88 -11 0 -23 -4 -26 -10 -3 -5 -21
-10 -40 -10 -18 0 -35 -6 -38 -12 -4 -10 -7 -10 -18 0 -18 17 -29 15 -29 -5
-1 -14 -4 -12 -14 7 l-14 25 -10 -35 c-6 -19 -11 -29 -11 -22 -1 6 -10 12 -20
12 -16 0 -21 10 -27 48 l-8 47 -9 -53 c-8 -48 -11 -52 -33 -48 -13 3 -27 0
-30 -6 -4 -6 -10 -5 -15 3 -10 16 -12 149 -3 149 4 0 15 -9 24 -21 l18 -20 7
22 c6 17 9 19 16 8 7 -11 10 -9 15 9 l6 22 18 -20 c15 -17 20 -19 27 -7 10 18
60 30 68 17 4 -7 12 -7 25 0 10 5 26 7 36 3 11 -4 15 -3 11 5 -7 10 10 18 41
21 7 0 22 -18 32 -41z m-369 -78 c-3 -36 -9 -64 -13 -62 -5 1 -17 2 -28 2 -18
0 -20 7 -20 64 0 70 9 85 34 60 15 -14 16 -13 16 8 1 17 3 19 9 8 4 -8 5 -44
2 -80z m1782 -105 c4 -8 2 -17 -3 -20 -6 -4 -10 3 -10 14 0 25 6 27 13 6z
m-14 -110 l0 -30 -13 31 c-7 17 -17 41 -20 55 l-7 24 20 -25 c11 -14 20 -38
20 -55z m-79 9 c12 -30 13 -144 2 -144 -4 0 -16 6 -27 13 -11 8 -45 19 -75 25
-81 18 -91 27 -49 45 19 8 54 31 79 51 25 20 48 36 53 36 4 0 12 -12 17 -26z
m240 -4 c0 -5 -4 -10 -10 -10 -5 0 -10 5 -10 10 0 6 5 10 10 10 6 0 10 -4 10
-10z m-49 -53 c-10 -9 -11 -8 -5 6 3 10 9 15 12 12 3 -3 0 -11 -7 -18z m49 -7
c0 -5 -7 -10 -15 -10 -8 0 -15 -8 -16 -17 0 -12 -2 -13 -6 -5 -5 14 14 42 28
42 5 0 9 -4 9 -10z m-590 -42 c20 -22 26 -39 13 -37 -33 5 -25 -9 69 -113 64
-71 72 -76 150 -102 104 -35 120 -52 117 -125 -2 -44 3 -66 23 -101 21 -36 24
-50 16 -70 l-9 -25 -13 23 c-6 12 -15 20 -19 16 -7 -7 -1 -108 9 -154 10 -45
14 -120 6 -120 -4 0 -27 60 -51 133 -59 177 -164 388 -250 498 -20 26 -41 55
-47 65 -6 10 -15 14 -22 10 -9 -5 -7 -14 7 -34 38 -55 131 -260 152 -337 20
-73 32 -236 18 -249 -3 -3 -15 -3 -27 1 -20 5 -22 11 -22 88 0 106 -24 198
-94 358 -31 71 -56 135 -56 143 0 8 -7 17 -15 20 -8 4 -15 17 -15 30 0 13 -4
24 -9 24 -17 0 -25 62 -10 71 24 15 58 10 79 -13z m-1651 -223 c15 -55 15 -57
-16 -53 -35 4 -37 16 -28 137 l8 96 12 -70 c7 -38 18 -88 24 -110z m601 133
c0 -5 -4 -8 -10 -8 -5 0 -10 10 -10 23 0 18 2 19 10 7 5 -8 10 -18 10 -22z
m-778 -157 c21 -82 21 -84 3 -97 -29 -22 -35 -2 -33 121 0 61 3 99 5 85 2 -14
13 -63 25 -109z m348 81 c0 -20 9 -86 20 -147 10 -60 17 -111 15 -113 -1 -2
-14 18 -29 44 -24 42 -26 57 -26 156 0 70 4 107 10 103 6 -3 10 -23 10 -43z
m870 -45 c12 -38 7 -59 -9 -41 -5 5 -12 29 -16 54 -8 53 6 45 25 -13z m1288
-1 c11 -8 9 -12 -8 -18 -27 -10 -40 -3 -40 22 0 20 20 19 48 -4z m-1578 -56
c22 -44 24 -50 11 -50 -7 0 -41 70 -41 85 0 14 12 1 30 -35z m310 -100 c0 -5
-4 -10 -10 -10 -5 0 -10 5 -10 10 0 6 5 10 10 10 6 0 10 -4 10 -10z m-63 -266
c-3 -3 -12 -4 -19 -1 -8 3 -5 6 6 6 11 1 17 -2 13 -5z m-37 -9 c0 -2 -9 -9
-20 -15 -16 -9 -18 -8 -14 5 5 13 34 22 34 10z m1094 -177 c-7 -29 -14 -69
-14 -88 0 -26 -3 -31 -10 -20 -15 23 -12 64 10 114 10 25 21 46 24 46 2 0 -2
-24 -10 -52z m711 3 c-19 -31 -266 -84 -288 -62 -5 5 17 9 52 10 67 1 136 15
196 42 49 21 48 21 40 10z m140 -53 c-65 -41 -137 -68 -178 -67 -17 0 -26 3
-18 6 10 4 11 7 1 13 -8 5 -1 10 21 15 19 4 39 12 46 17 7 5 25 7 40 4 19 -4
43 3 73 19 64 35 74 30 15 -7z m-639 -21 c30 -57 124 -173 175 -217 58 -49 73
-48 29 1 -70 77 -59 87 17 16 23 -22 52 -46 63 -54 11 -8 18 -18 16 -22 -3 -4
15 -21 41 -36 66 -43 33 -43 -52 -1 -50 25 -95 58 -146 108 -65 65 -70 69 -50
33 20 -34 21 -38 4 -23 -35 32 -151 250 -123 233 5 -3 17 -20 26 -38z m434
-148 l75 -24 -50 -5 c-44 -5 -47 -6 -25 -14 14 -5 50 -12 80 -16 50 -7 51 -7
15 -9 -50 -1 -150 24 -178 45 -21 15 -20 16 21 11 23 -3 42 -1 42 4 0 5 -7 9
-15 9 -17 0 -115 47 -115 55 0 3 17 -3 38 -14 20 -10 71 -30 112 -42z m-295
-89 c10 -11 16 -20 13 -20 -3 0 -13 9 -23 20 -10 11 -16 20 -13 20 3 0 13 -9
23 -20z m-708 -12 c-3 -8 -6 -5 -6 6 -1 11 2 17 5 13 3 -3 4 -12 1 -19z m913
-38 c8 -5 11 -10 5 -10 -5 0 -17 5 -25 10 -8 5 -10 10 -5 10 6 0 17 -5 25 -10z
m-1994 -407 c-2 -21 -7 -47 -10 -58 -2 -11 -5 -23 -5 -27 -1 -3 -9 -4 -20 -1
-10 3 -22 0 -25 -6 -11 -17 -29 -13 -22 4 3 9 -1 18 -9 21 -8 4 -12 11 -9 16
4 6 10 5 15 -3 6 -9 7 -3 3 17 -7 39 11 55 84 73 2 1 1 -16 -2 -36z m380 -9
c-23 -65 -162 -351 -174 -358 -7 -4 13 45 43 110 39 82 53 123 49 140 -3 13
-8 24 -10 24 -12 0 -72 -44 -110 -80 -42 -40 -44 -40 -32 -14 17 41 89 163 99
170 15 9 10 -13 -12 -51 -12 -20 -20 -38 -17 -40 2 -2 28 14 56 36 29 22 57
37 61 35 4 -3 18 12 32 33 13 22 25 38 27 37 1 -2 -4 -20 -12 -42z m-416 -100
c0 -8 -4 -12 -10 -9 -5 3 -10 10 -10 16 0 5 5 9 10 9 6 0 10 -7 10 -16z m-10
-474 c0 -5 -2 -10 -4 -10 -3 0 -8 5 -11 10 -3 6 -1 10 4 10 6 0 11 -4 11 -10z
m-33 -32 c-3 -8 -6 -5 -6 6 -1 11 2 17 5 13 3 -3 4 -12 1 -19z m749 -296 c-5
-13 1 -22 16 -30 l23 -11 -22 0 c-13 -1 -23 4 -23 9 0 6 -7 10 -16 10 -9 0
-12 -5 -8 -12 4 -7 3 -8 -4 -4 -16 10 -15 26 2 26 8 0 16 7 20 15 8 22 18 19
12 -3z m34 -2 c0 -5 -5 -10 -11 -10 -5 0 -7 5 -4 10 3 6 8 10 11 10 2 0 4 -4
4 -10z"/>
<path d="M1940 2970 c0 -5 5 -10 11 -10 5 0 7 5 4 10 -3 6 -8 10 -11 10 -2 0
-4 -4 -4 -10z"/>
<path d="M2448 4013 c7 -3 16 -2 19 1 4 3 -2 6 -13 5 -11 0 -14 -3 -6 -6z"/>
<path d="M895 3820 c-4 -12 -5 -24 -2 -27 3 -2 8 5 12 17 4 12 5 24 2 27 -3 2
-8 -5 -12 -17z"/>
<path d="M651 3193 c-51 -69 -116 -195 -170 -330 -39 -100 -73 -204 -68 -209
2 -2 16 22 31 54 100 201 237 417 287 454 17 13 38 36 46 51 13 27 13 28 -4
18 -10 -5 -31 -21 -45 -36 -26 -26 -27 -26 -37 -6 -13 23 -14 34 -3 27 4 -2 8
4 8 15 0 10 -1 19 -1 19 -1 0 -21 -26 -44 -57z"/>
<path d="M1167 2926 c-3 -8 0 -17 7 -19 10 -4 12 1 9 14 -6 23 -9 24 -16 5z"/>
<path d="M3501 2824 c0 -11 3 -14 6 -6 3 7 2 16 -1 19 -3 4 -6 -2 -5 -13z"/>
<path d="M1344 1806 c11 -9 24 -16 30 -16 12 0 7 5 -24 19 -24 11 -24 11 -6
-3z"/>
<path d="M2195 1810 l-60 -7 60 -1 c33 0 69 3 80 8 l20 9 -20 -1 c-11 -1 -47
-4 -80 -8z"/>
<path d="M932 1050 c0 -14 2 -19 5 -12 2 6 2 18 0 25 -3 6 -5 1 -5 -13z"/>
<path d="M941 994 c0 -11 3 -14 6 -6 3 7 2 16 -1 19 -3 4 -6 -2 -5 -13z"/>
<path d="M1091 790 c0 -8 4 -22 9 -30 12 -18 12 -2 0 25 -6 13 -9 15 -9 5z"/>
<path d="M1131 674 c0 -11 3 -14 6 -6 3 7 2 16 -1 19 -3 4 -6 -2 -5 -13z"/>
<path d="M1480 580 c0 -5 10 -10 23 -10 18 0 19 2 7 10 -19 13 -30 13 -30 0z"/>
<path d="M1580 431 c-24 -7 -24 -7 -3 -13 14 -4 24 -1 27 8 3 8 4 14 3 13 -1
-1 -13 -4 -27 -8z"/>
</g>
</svg>
